<?xml version="1.0" encoding="utf-8"?>
<!-- Generator: Adobe Illustrator 25.4.1, SVG Export Plug-In . SVG Version: 6.00 Build 0)  -->
<svg version="1.1" id="Layer_1" xmlns="http://www.w3.org/2000/svg" xmlns:xlink="http://www.w3.org/1999/xlink" x="0px" y="0px"
	 viewBox="0 0 24 10" style="enable-background:new 0 0 24 10;" xml:space="preserve">
<style type="text/css">
	.fur{fill-rule:evenodd;clip-rule:evenodd;fill:#7D78A5;}
	.outline{fill:#100C0A;}
</style>
	<polygon class="fur" points="22,1 22,0 21,0 20,0 18,0 17,0 15,0 14,0 10,0 9,0 6,0 5,0 3,0 2,0 2,1 1,1 1,2 1,4 1,5 1,7 2,7 2,8 
		3,8 3,9 5,9 6,9 9,9 10,9 10,8 12,8 12,9 14,9 15,9 17,9 18,9 18,8 20,8 20,7 21,7 21,6 23,6 23,5 23,4 23,2 23,1"/>
	<g>
		<rect x="1" y="7" class="outline" width="1" height="1"/>
		<rect x="2" y="8" class="outline" width="1" height="1"/>
		<polygon class="outline" points="1,2 2,2 2,1 1,1 1,2 0,2 0,5 0,7 1,7 1,5"/>
		<polygon class="outline" points="21,7 20,7 20,8 18,8 18,9 14,9 12,9 12,10 14,10 18,10 20,10 20,9 21,9 21,8 22,8 22,7 23,7 23,6 
			21,6 	"/>
		<polygon class="outline" points="23,2 23,5 23,6 24,6 24,5 24,2 	"/>
		<rect x="10" y="8" class="outline" width="2" height="1"/>
		<polygon class="outline" points="5,9 3,9 3,10 5,10 9,10 10,10 10,9 9,9 	"/>
		<polygon class="outline" points="23,2 23,1 22,1 21,1 21,2 22,2 	"/>
		<polygon class="outline" points="4,1 4,0 3,0 2,0 2,1 3,1 	"/>
	</g>
</svg>
