<svg xmlns="http://www.w3.org/2000/svg" width="40" height="40" viewBox="0 0 40 40">
  <defs/>
  <g fill="#9995B8">
    <path d="M22.0005 7H23.0005V8H22.0005V7zM23.0005 7H24V8H23.0005V7zM14 8H15V9H14V8zM15 8H16V9H15V8z"/>
  </g>
  <g fill="#7D78A5">
    <path d="M16 5H17V6H16V5zM17 5H18.0005V6H17V5zM15 6L16 6 16 7H15V6zM16 6H17V7H16L16 6zM17 6H18.0005V7H17V6zM18.0005 6L19 6V7H18.0005V6zM21 6H22V7H21V6zM22 6H23.0005V7H22V6zM23.0005 6H24V7H23.0005V6zM16 7H17V8H16L16 7zM17 7H18.0005V8H17V7zM18.0005 7H19V8H18.0005V7zM19 7L20 7V8H19V7zM20 7L21 7 21 8H20V7zM21 7H22V8H21L21 7zM13.0005 8H14.0005V9H13.0005V8zM17 8H18.0005V9H17.0005L17 8zM18.0005 8H19V9H18.0005V8zM19 8H20V9H19V8zM20 8H21V9H20V8zM21 8H22V9H21V8zM22 8L23.0005 8V9H22V8zM24 8H25V9H24V8zM25 8H25.9995V9H25V8zM12 9.00006L13.0005 9 13 10.0001H12V9.00006z"/>
    <path d="M13.0005 9H14.0005V10.0001H13L13.0005 9zM14.0005 9L15 9.00006V10.0001H14.0005V9zM15 9.00006H16V10.0001H15V9.00006zM16 9.00006L17.0005 9 17 10.0001H16V9.00006zM23.0005 9H24L24 10.0001H23L23.0005 9zM24 9H25V10.0001H24L24 9zM25 9H25.9995V10.0001H25V9zM12 10.0001H13V11H12V10.0001zM13 10.0001H14.0005V11H13V10.0001zM14.0005 10.0001H15V11H14.0005V10.0001zM15 10.0001H16V11H15V10.0001zM16 10.0001H17V11H16V10.0001zM17 10.0001L18.0005 10V11H17V10.0001zM18.0005 10H19V11H18.0005V10zM19 10H20V11H19V10zM20 10H21V11H20V10zM21 10H22V11H21V10zM22 10L23 10.0001 23.0005 11H22V10z"/>
    <path d="M23 10.0001H24V11H23.0005L23 10.0001zM24 10.0001H25V11H24V10.0001zM25 10.0001H25.9995V11H25V10.0001zM25.9995 10.0001L27.0005 10V11H25.9995V10.0001zM11 11L12 11 12 12H11V11zM12 11H13V12H12L12 11zM13 11H14.0005V12H13V11zM14.0005 11H15V12H14.0005V11zM15 11H16V12H15V11zM16 11H17V12H16V11zM17 11H18.0005V12H17V11zM18.0005 11H19V12H18.0005V11zM19 11H20V12H19V11zM20 11H21V12H20V11zM21 11H22V12H21V11zM22 11H23.0005V12H22V11zM23.0005 11H24V12H23.0005V11zM24 11H25V12H24V11zM25 11H25.9995L25.999 12H25V11z"/>
    <path d="M25.9995 11H27.0005L27 12H25.999L25.9995 11zM10 12L11 12 11 13H10V12zM11 12H12V13H11L11 12zM12 12H13V13H12V12zM13 12H14.0005V13H13V12zM14.0005 12H15V13H14.0005V12zM15 12H16V13H15V12zM16 12H17V13H16V12zM17 12H18.0005V13H17V12zM18.0005 12H19V13H18.0005V12zM19 12H20V13H19V12zM20 12H21V13H20V12zM21 12H22V13H21V12zM22 12H23.0005V13H22V12zM23.0005 12H24V13H23.0005V12zM24 12H25V13H24V12zM25 12H25.999V13H25V12zM25.999 12H27V13H25.999V12zM10 13H11V14H10V13zM11 13H12V14H11V13zM12 13H13V14H12V13zM13 13H14.0005V14H13V13zM14.0005 13H15V14H14.0005V13zM15 13H16V14H15V13zM16 13H17V14H16V13zM17 13H18.0005V14H17V13zM18.0005 13H19V14H18.0005V13zM19 13H20V14H19V13zM20 13H21V14H20V13zM21 13H22V14H21V13zM22 13H23.0005V14H22V13zM23.0005 13H24V14H23.0005V13zM24 13H25V14H24V13zM25 13H25.999L25.9995 14H25V13z"/>
    <path d="M25.999 13H27L27.0005 14H25.9995L25.999 13Z"/>
    <path d="M27 13H28.0005V14H27.0005L27 13zM28.0005 13L29 13V14H28.0005V13zM29 13H30.0005V14H29V13zM10 14H11V15H10V14zM11 14H12V15H11V14zM12 14H13V15H12V14zM13 14H14.0005V15H13V14zM14.0005 14H15V15H14.0005V14zM15 14H16V15H15V14zM16 14H17V15H16V14zM17 14H18.0005V15H17V14zM18.0005 14H19V15H18.0005V14zM19 14H20V15H19V14zM20 14H21V15H20V14zM21 14H22V15H21V14zM22 14H23.0005V15H22V14zM23.0005 14H24V15H23.0005V14zM24 14H25V15H24V14zM25 14H25.9995V15H25V14zM25.9995 14H27.0005V15H25.9995V14zM28.0005 14H29V15H28L28.0005 14zM29 14H30.0005V15H29V14zM14 7L15 7V8H14.0005L14 7zM15 7H16L16 8 15 8V7zM24 7L25 7 25 8H24L24 7zM16 8H17L17.0005 9 16 9.00006 16 8zM23.0005 8H24V9H23.0005V8zM17.0005 9H18.0005V10L17 10.0001 17.0005 9zM18.0005 9H19V10H18.0005V9zM19 9H20V10H19V9zM20 9H21V10H20V9zM21 9H22V10H21V9zM22 9H23.0005L23 10.0001 22 10V9z"/>
    <path d="M27.0005 14H28.0005L28 15H27.0005V14zM27 12V13H28.0005V12L27 12z"/>
  </g>
  <g fill="#100C0A">
    <path d="M17 4H16V5L15 5V6L14 6V7L13.0005 7V8H14.0005L14 7H15L15 6H16L16 5H17V4zM18.0005 4H17V5L18 5V6H19V7H21V6L24 6 24 7 24.9995 7V8H25.9995V7H24.9995L25 6 24 6V5H21L21 6 19 6V5H18L18.0005 4zM13.0005 8L12 8V9H13L13.0005 8zM25.9995 8L27.0005 8V9H26.0005L25.9995 8zM12 9L11 9.00006V11L10 11V12L9.00049 12V15H10.0005L10 12H11L11 11H12L12 9zM26.0005 9H27.0005L27.0005 10H28.0005V12L29 12V13H28L28.0005 12H27.0005V10L26.0005 10.0001V9zM31.0005 13H30.0005L30.0005 12H29V13L30.0005 13V15H31.0005V13z"/>
  </g>
  <rect width="1" height="1" x="15" y="6" fill="#100C0A"/>
  <rect width="1" height="1" x="19" y="7" fill="#100C0A"/>
  <g fill="#100C0A">
    <rect width="1" height="1" x="25" y="9"/>
    <rect width="1" height="1" x="24" y="10"/>
  </g>
  <g>
    <path fill="#7D78A5" fill-rule="evenodd" d="M9.99951 15H10.9995V15.9999H10L9.99951 16.9999H9V15.9999H10L9.99951 15ZM10 15.9999H10.9995V16.9999H9.99951L10 15.9999ZM10.9995 15.9999V16.9999H12.9995V16L10.9995 15.9999ZM12.9995 15V16L10.9995 15.9999V15H12.9995ZM13.9995 15.9999L12.9995 16V15H13.9995V15.9999ZM13.9995 15.9999V15H16.9995V15.9999H13.9995ZM16.9995 15.9999V16.9999H14L13.9995 15.9999H16.9995ZM12.9995 16L13.9995 15.9999L14 16.9999H12.9995V16ZM17.9995 15.9999H16.9995V15H17.9995V15.9999ZM17.9995 15.9999V15H21.9995V15.9999H17.9995ZM17.9995 15.9999L18 16.9999H21.9995V15.9999H17.9995ZM16.9995 15.9999H17.9995L18 16.9999H16.9995V15.9999ZM21.9995 15.9999H22.9995V15H21.9995V15.9999ZM22.9995 15V15.9999H24.999V15H22.9995ZM24.999 15V15.9999H25.999V15H24.999ZM25.999 15.9999H24.999L24.9995 16.9999H25.999V15.9999ZM22.9995 15.9999H24.999L24.9995 16.9999H23L22.9995 15.9999ZM22.9995 15.9999H21.9995V16.9999H23L22.9995 15.9999ZM28 15.9999H28.9995V15H28V15.9999ZM28 15.9999H25.999V16.9999H27.9995L28 15.9999ZM28 15.9999V15H25.999V15.9999H28ZM28.9995 15.9999H28L27.9995 16.9999H28.9995V15.9999ZM30 15.9999H28.9995V15H30V15.9999ZM30 15.9999H31V16.9999H28.9995V15.9999H30ZM9.99951 16.9999H9V19H9.99951V16.9999ZM9.99951 19H12.9995V16.9999H10.9995H9.99951V19ZM12.9995 19H9.99951L10 20H12.9995V19ZM10 20L9.99951 19H9V20H10ZM14 16.9999H12.9995V19H13.9995L14 16.9999ZM13.9995 19H16.9995V16.9999H14L13.9995 19ZM16.9995 19H13.9995L14 20H16.9995V19ZM14 20L13.9995 19H12.9995V20H14ZM18 16.9999H16.9995V19H17.9995L18 16.9999ZM17.9995 19H21.9995V16.9999H18L17.9995 19ZM17.9995 19L18 20H21.9995V19H17.9995ZM18 20L17.9995 19H16.9995V20H18ZM21.9995 16.9999H23L22.9995 19H21.9995V16.9999ZM22.9995 19H24.999L24.9995 16.9999H23L22.9995 19ZM24.999 19H25.999V16.9999H24.9995L24.999 19ZM25.999 19H24.999L24.9995 20H25.999V19ZM24.9995 20L24.999 19H22.9995L23 20H24.9995ZM23 20L22.9995 19H21.9995V20H23ZM27.9995 16.9999V19H25.999V16.9999H27.9995ZM27.9995 19H28.9995V16.9999H27.9995V19ZM27.9995 19H25.999V20H27.9995V19ZM27.9995 20V19H28.9995V20H27.9995ZM28.9995 16.9999H31V19H28.9995V16.9999ZM31 19V20H28.9995V19H31ZM10 20H9V22.0001H9.99951V23.0001H10.9995L10.9995 24H12.9995V23.0001V20H10ZM14 20H12.9995V23.0001L13.9995 23L14 20ZM13.9995 23H16.9995V20H14L13.9995 23ZM16.9995 23H13.9995L14 24H16.9995V23ZM14 24L13.9995 23L12.9995 23.0001V24H14ZM18 20H16.9995V23V24H18L17.9995 23L19.9995 23.0001L19.9995 24H21.9995V23.0001V20H18ZM25.999 20H24.9995V22.0001V23H25.999V20ZM24.9995 20H23V23H24.9995V22.0001V20ZM23 23L21.9995 23.0001V20H23V23ZM24.9995 23L24.999 24H23V23H24.9995ZM25.999 24H24.999L24.9995 23H25.999V24ZM23 23V24H21.9995V23.0001L23 23ZM25.999 20H27.9995V22.0001L28 23.0001L25.999 23V20ZM27.9995 22.0001V20H28.9995V21.0001V22.0001H27.9995ZM28.9995 20V21.0001H31V20H28.9995Z" clip-rule="evenodd"/>
    <g fill="#100C0A">
      <path d="M9 15H10V16H9V16.9999H8V15.9999L9 16 9 15zM31.0005 15.9999H32.0005V16.9999H31.0005V15.9999L30.0005 16V15H31.0005L31.0005 15.9999zM9 16.9999H8V20H9V16.9999zM31.0005 16.9999H32.0005V20H31.0005V16.9999zM9 20H8V22.0001H9V20zM31.0005 20H32.0005V21.0001H31.0005V20zM31.0005 21.0001L31.0005 22.0001H30.0005V23.0001H29.0005V22.0001 21.0001L31.0005 21.0001zM9 22.0001L10.0005 22.0001V23H11V24H10L10.0005 23 9.00049 23.0001 9 22.0001zM11 24L13 24V25H11L11 24zM29.0005 22.0001L28 22.0001V23H26.0005V24 25H28.0005V24H29L29.0005 23.0001V22.0001zM18 23H20V24L18.0005 24V25H17.0005V24H18.0005L18 23zM20 24L22 24V25H20L20 24zM13 24V25H17.0005V24H13zM22 24L26.0005 24V25H22V24z"/>
    </g>
    <rect width="1" height="1" x="29" y="14" fill="#100C0A"/>
    <rect width="1" height="1" x="28" y="14" fill="#100C0A"/>
    <rect width="1" height="1" x="10" y="14" fill="#100C0A"/>
    <rect width="1" height="1" x="11" y="13" fill="#100C0A"/>
    <rect width="1" height="1" x="12" y="13" fill="#100C0A"/>
  </g>
</svg>
