<?xml version="1.0" encoding="utf-8"?>
<!-- Generator: Adobe Illustrator 25.4.1, SVG Export Plug-In . SVG Version: 6.00 Build 0)  -->
<svg version="1.1" id="Layer_1" xmlns="http://www.w3.org/2000/svg" xmlns:xlink="http://www.w3.org/1999/xlink" x="0px" y="0px"
	 viewBox="0 0 21 10" style="enable-background:new 0 0 21 10;" xml:space="preserve">
<style type="text/css">
	.fur{fill-rule:evenodd;clip-rule:evenodd;fill:#7D78A5;}
	.outline{fill:#100C0A;}
</style>
<polygon class="fur" points="19,0 18,0 16,0 15,0 13,0 12,0 8,0 7,0 4,0 3,0 2,0 1,0 1,1 1,2 1,3 2,3 2,4 2,5 2,7 3,7 3,8 4,8 4,9 
	7,9 8,9 8,8 10,8 10,9 12,9 13,9 15,9 16,9 16,8 17,8 17,7 18,7 18,6 19,6 19,5 19,4 19,2 19,1 20,1 20,0 "/>
<g>
	<polygon class="outline" points="4,9 4,10 7,10 8,10 8,9 7,9 	"/>
	<rect x="3" y="8" class="outline" width="1" height="1"/>
	<rect x="8" y="8" class="outline" width="2" height="1"/>
	<polygon class="outline" points="1,0 0,0 0,2 0,3 1,3 1,2 	"/>
	<rect x="2" y="7" class="st1" width="1" height="1"/>
	<polygon class="outline" points="2,3 1,3 1,5 1,7 2,7 2,5 	"/>
	<rect x="16" y="8" class="outline" width="1" height="1"/>
	<rect x="20" y="0" class="outline" width="1" height="1"/>
	<polygon class="outline" points="10,9 10,10 12,10 16,10 16,9 12,9 	"/>
	<polygon class="outline" points="19,2 19,5 19,6 20,6 20,5 20,2 20,1 19,1 	"/>
	<rect x="18" y="6" class="outline" width="1" height="1"/>
	<rect x="17" y="7" class="outline" width="1" height="1"/>
</g>
</svg>
