<?xml version="1.0" encoding="utf-8"?>
<!-- Generator: Adobe Illustrator 25.4.1, SVG Export Plug-In . SVG Version: 6.00 Build 0)  -->
<svg version="1.1" id="Layer_1" xmlns="http://www.w3.org/2000/svg" xmlns:xlink="http://www.w3.org/1999/xlink" x="0px" y="0px"
	 viewBox="0 0 22 11" style="enable-background:new 0 0 22 11;" xml:space="preserve">
<style type="text/css">
	.outline{fill:#100C0A;}
	.fur{fill:#7D78A5;}
	.highlight{fill:#9995B8;}
</style>
<g>
	<rect x="4" y="3" class="outline" width="1" height="1"/>
	<rect x="2" y="5" class="outline" width="1" height="2"/>
	<polygon class="outline" points="6,2 5,2 5,3 6,3 7,3 7,2 7,1 6,1"/>
	<rect x="0" y="8" class="outline" width="1" height="3"/>
	<rect x="1" y="7" class="outline" width="1" height="1"/>
	<polygon class="outline" points="10,3 10,4 11,4 11,3 12,3 12,2 10,2"/>
	<polygon class="outline" points="8,0 7,0 7,1 8,1 9,1 9,0"/>
	<rect x="3" y="4" class="outline" width="1" height="1"/>
	<polygon class="outline" points="20,8 19,8 19,9 20,9 21,9 21,8"/>
	<rect x="18" y="6" class="outline" width="1" height="2"/>
	<rect x="21" y="9" class="outline" width="1" height="2"/>
	<polygon class="outline" points="18,4 17,4 17,5 17,6 18,6 18,5"/>
	<rect x="16" y="3" class="outline" width="1" height="1"/>
	<rect x="12" y="1" class="outline" width="3" height="1"/>
	<rect x="9" y="1" class="outline" width="1" height="1"/>
	<rect x="15" y="2" class="outline" width="1" height="1"/>
	<rect x="16" y="5" class="outline" width="1" height="1"/>
	<rect x="15" y="6" class="outline" width="1" height="1"/>
</g>
<polygon class="fur" points="20,9 19,9 19,8 18,8 18,7 18,6 17,6 17,5 17,4 16,4 16,3 15,3 15,4 15,4 15,3 15,3 15,2 14,2 13,2 
	12,2 12,3 11,3 10,3 10,2 9,2 9,1 8,1 7,1 7,2 6,2 6,3 5,3 5,4 4,4 4,5 3,5 3,6 3,7 2,7 2,8 1,8 1,9 1,10 1,11 2,11 3,11 4,11 5,11 
	6,11 7,11 8,11 9,11 10,11 11,11 12,11 13,11 14,11 15,11 16,11 17,11 18,11 19,11 20,11 21,11 21,10 21,9"/>
<g>
	<polygon class="highlight" points="5,5 5,6 6,6 7,6 7,5 6,5"/>
	<polygon class="highlight" points="14,3 13,3 13,4 14,4 15,4 15,3"/>
</g>
</svg>
