<?xml version="1.0" encoding="utf-8"?>
<!-- Generator: Adobe Illustrator 25.4.1, SVG Export Plug-In . SVG Version: 6.00 Build 0)  -->
<svg version="1.1" id="Layer_1" xmlns="http://www.w3.org/2000/svg" xmlns:xlink="http://www.w3.org/1999/xlink" x="0px" y="0px"
	 viewBox="0 0 22 11" style="enable-background:new 0 0 22 11;" xml:space="preserve">
<style type="text/css">
	.fur{fill:#7D78A5;}
	.outline{fill:#100C0A;}
	.highlight{fill:#9995B8;}
</style>
<path class="fur" d="M20 9h-1V8h-1V6h-1V4h-1V3h-1v1-2h-3v1h-2V2H9V1H7v1H6v1H5v1H4v1H3v2H2v1H1v3h20V9z"/>
<g>
	<rect x="4" y="3" class="outline" width="1" height="1"/>
	<rect x="2" y="5" class="outline" width="1" height="2"/>
	<polygon class="outline" points="6,2 5,2 5,3 6,3 7,3 7,2 7,1 6,1"/>
	<rect y="8" class="outline" width="1" height="3"/>
	<rect x="1" y="7" class="outline" width="1" height="1"/>
	<polygon class="outline" points="10,3 10,4 11,4 11,3 12,3 12,2 10,2"/>
	<polygon class="outline" points="8,0 7,0 7,1 8,1 9,1 9,0"/>
	<rect x="3" y="4" class="outline" width="1" height="1"/>
	<polygon class="outline" points="20,8 19,8 19,9 20,9 21,9 21,8"/>
	<rect x="18" y="6" class="outline" width="1" height="2"/>
	<rect x="21" y="9" class="outline" width="1" height="2"/>
	<polygon class="outline" points="18,4 17,4 17,5 16,5 16,6 17,6 18,6 18,5"/>
	<rect x="16" y="3" class="outline" width="1" height="1"/>
	<rect x="12" y="1" class="outline" width="3" height="1"/>
	<rect x="9" y="1" class="outline" width="1" height="1"/>
	<rect x="15" y="2" class="outline" width="1" height="1"/>
	<rect x="15" y="6" class="outline" width="1" height="1"/>
</g>
<g>
	<polygon class="highlight" points="5,5 5,6 6,6 7,6 7,5 6,5"/>
	<polygon class="highlight" points="14,3 13,3 13,4 14,4 15,4 15,3"/>
</g>
</svg>
