<?xml version="1.0" encoding="utf-8"?>
<!-- Generator: Adobe Illustrator 25.4.1, SVG Export Plug-In . SVG Version: 6.00 Build 0)  -->
<svg version="1.1" id="Layer_1" xmlns="http://www.w3.org/2000/svg" xmlns:xlink="http://www.w3.org/1999/xlink" x="0px" y="0px"
	 viewBox="0 0 18 11" style="enable-background:new 0 0 18 11;" xml:space="preserve">
<style type="text/css">
	.fur{fill:#7D78A5;}
	.outline{fill:#100C0A;}
</style>
<polygon class="fur" points="16,8 16,5 15,5 15,3 13,3 12,3 12,2 11,2 11,1 7,1 7,2 7,3 3,3 2,3 2,7 1,7 1,11 2,11 15,11 16,11 
	17,11 17,10 17,9 17,8 "/>
<g>
	<polygon class="outline" points="17,8 17,9 17,10 18,10 18,9 18,8 	"/>
	<polygon class="outline" points="17,6 16,6 16,7 16,8 17,8 17,7 	"/>
	<polygon class="outline" points="16,4 15,4 15,5 15,6 16,6 16,5 	"/>
	<polygon class="outline" points="14,3 14,2 13,2 12,2 12,3 13,3 13,4 14,4 15,4 15,3 	"/>
	<rect x="11" y="1" class="outline" width="1" height="1"/>
	<polygon class="outline" points="10,0 9,0 8,0 8,1 9,1 10,1 11,1 11,0 	"/>
	<rect x="5" y="3" class="outline" width="1" height="1"/>
	<polygon class="outline" points="4,2 3,2 3,3 4,3 5,3 5,2 	"/>
	<rect x="7" y="1" class="outline" width="1" height="1"/>
	<rect x="7" y="3" class="outline" width="1" height="1"/>
	<rect x="8" y="4" class="outline" width="1" height="1"/>
	<rect x="6" y="2" class="outline" width="1" height="1"/>
	<rect x="2" y="3" class="outline" width="1" height="1"/>
	<polygon class="outline" points="1,5 1,6 1,7 2,7 3,7 3,6 2,6 2,5 2,4 1,4 	"/>
	<polygon class="outline" points="0,8 0,9 0,10 1,10 1,9 1,8 1,7 0,7 	"/>
</g>
</svg>
