<?xml version="1.0" encoding="utf-8"?>
<!-- Generator: Adobe Illustrator 25.4.1, SVG Export Plug-In . SVG Version: 6.00 Build 0)  -->
<svg version="1.1" id="Layer_1" xmlns="http://www.w3.org/2000/svg" xmlns:xlink="http://www.w3.org/1999/xlink" x="0px" y="0px"
	 viewBox="0 0 20 9" style="enable-background:new 0 0 20 9;" xml:space="preserve">
<style type="text/css">
	.st0{fill:#100C0A;}
	.fur{fill:#7D78A5;}
</style>
<g>
	<polygon class="st0" points="19,6 19,7 19,8 20,8 20,7 20,6 	"/>
	<polygon class="st0" points="19,4 18,4 17,4 17,5 18,5 18,6 19,6 19,5 	"/>
	<rect x="2" y="3" class="st0" width="1" height="1"/>
	<rect x="9" y="4" class="st0" width="1" height="1"/>
	<rect x="3" y="2" class="st0" width="1" height="1"/>
	<polygon class="st0" points="5,1 4,1 4,2 5,2 6,2 6,1 	"/>
	<polygon class="st0" points="6,2 6,3 7,3 8,3 8,2 7,2 	"/>
	<rect x="8" y="3" class="st0" width="1" height="1"/>
	<rect x="8" y="1" class="st0" width="1" height="1"/>
	<polygon class="st0" points="11,0 10,0 9,0 9,1 10,1 11,1 12,1 12,0 	"/>
	<rect x="12" y="1" class="st0" width="1" height="1"/>
	<polygon class="st0" points="15,2 14,2 13,2 13,3 14,3 15,3 16,3 16,2 	"/>
	<rect x="16" y="3" class="st0" width="1" height="1"/>
	<rect x="1" y="4" class="st0" width="1" height="1"/>
	<polygon class="st0" points="0,6 0,7 0,8 1,8 1,7 1,6 1,5 0,5 	"/>
</g>
<polygon class="fur" points="18,6 18,5 17,5 17,4 16,4 16,3 13,3 13,2 12,2 12,1 9,1 9,2 4,2 4,3 3,3 3,4 2,4 2,5 1,5 1,6 1,7 1,8 
	1,9 19,9 19,8 19,7 19,6 "/>
</svg>
