<?xml version="1.0" encoding="utf-8"?>
<!-- Generator: Adobe Illustrator 25.4.1, SVG Export Plug-In . SVG Version: 6.00 Build 0)  -->
<svg version="1.1" id="Layer_1" xmlns="http://www.w3.org/2000/svg" xmlns:xlink="http://www.w3.org/1999/xlink" x="0px" y="0px"
	 viewBox="0 0 20 9" style="enable-background:new 0 0 20 9;" xml:space="preserve">
<style type="text/css">
	.outline{fill:#100C0A;}
	.fur{fill:#7D78A5;}
</style>
<g>
	<polygon class="outline" points="0,7 0,8 1,8 1,7 1,6 0,6 	"/>
	<polygon class="outline" points="1,4 1,5 1,6 2,6 2,5 3,5 3,4 2,4 	"/>
	<rect x="17" y="3" class="outline" width="1" height="1"/>
	<rect x="16" y="2" class="outline" width="1" height="1"/>
	<polygon class="outline" points="15,1 14,1 13,1 12,1 11,1 11,2 12,2 13,2 14,2 15,2 16,2 16,1 	"/>
	<polygon class="outline" points="10,0 9,0 8,0 8,1 9,1 10,1 11,1 11,0 	"/>
	<rect x="7" y="1" class="outline" width="1" height="1"/>
	<polygon class="outline" points="5,2 4,2 4,3 5,3 6,3 7,3 7,2 6,2 	"/>
	<rect x="3" y="3" class="outline" width="1" height="1"/>
	<rect x="18" y="4" class="outline" width="1" height="1"/>
	<polygon class="outline" points="19,5 19,6 19,7 19,8 20,8 20,7 20,6 20,5 	"/>
</g>
<polygon class="fur" points="18,5 18,4 17,4 17,3 16,3 16,2 11,2 11,1 8,1 8,2 7,2 7,3 4,3 4,4 3,4 3,5 2,5 2,6 1,6 1,7 1,8 1,9 
	19,9 19,8 19,7 19,6 19,5 "/>
</svg>
