<?xml version="1.0" encoding="utf-8"?>
<!-- Generator: Adobe Illustrator 25.4.1, SVG Export Plug-In . SVG Version: 6.00 Build 0)  -->
<svg version="1.1" id="Layer_1" xmlns="http://www.w3.org/2000/svg" xmlns:xlink="http://www.w3.org/1999/xlink" x="0px" y="0px"
	 viewBox="0 0 24 12" style="enable-background:new 0 0 24 12;" xml:space="preserve">
<style type="text/css">
	.st0{fill-rule:evenodd;clip-rule:evenodd;fill:#7D78A5;}
	.st1{fill:#100C0A;}
</style>
<polygon class="st0" points="22,3 22,2 21,2 20,2 18,2 17,2 15,2 14,2 10,2 9,2 6,2 5,2 3,2 2,2 2,3 1,3 1,4 1,6 1,7 1,9 2,9 2,10 
	3,10 3,11 5,11 6,11 9,11 10,11 10,10 12,10 12,11 14,11 15,11 17,11 18,11 18,10 20,10 20,9 21,9 21,8 23,8 23,7 23,6 23,4 23,3 
	"/>
<g>
	<rect x="1" y="2" class="st1" width="1" height="1"/>
	<polygon class="st1" points="23,3 23,4 23,7 23,8 24,8 24,7 24,4 24,3 	"/>
	<rect x="22" y="2" class="st1" width="1" height="1"/>
	<polygon class="st1" points="1,4 1,3 0,3 0,4 0,7 0,9 1,9 1,7 	"/>
	<polygon class="st1" points="21,9 20,9 20,10 18,10 18,11 14,11 12,11 12,12 14,12 18,12 20,12 20,11 21,11 21,10 22,10 22,9 23,9 
		23,8 21,8 	"/>
	<rect x="1" y="9" class="st1" width="1" height="1"/>
	<rect x="2" y="10" class="st1" width="1" height="1"/>
	<rect x="10" y="10" class="st1" width="2" height="1"/>
	<polygon class="st1" points="5,11 3,11 3,12 5,12 9,12 10,12 10,11 9,11 	"/>
	<polygon class="st1" points="21,2 22,2 22,1 21,1 20,1 19,1 19,2 20,2 	"/>
	<rect x="2" y="1" class="st1" width="1" height="1"/>
	<polygon class="st1" points="5,1 5,0 4,0 3,0 3,1 4,1 	"/>
</g>
</svg>
