<?xml version="1.0" encoding="utf-8"?>
<!-- Generator: Adobe Illustrator 25.4.1, SVG Export Plug-In . SVG Version: 6.00 Build 0)  -->
<svg version="1.1" id="Layer_1" xmlns="http://www.w3.org/2000/svg" xmlns:xlink="http://www.w3.org/1999/xlink" x="0px" y="0px"
	 viewBox="0 0 6 5" style="enable-background:new 0 0 6 5;" xml:space="preserve">
<style type="text/css">
	.st0{fill:#9995B8;}
	.st1{fill:#7D78A5;}
</style>
<polygon class="outline" points="4,1 3,1 1,1 1,2 3,2 4,2 5,2 5,1 "/>
<g>
	<polygon points="4,0 3,0 1,0 1,1 3,1 4,1 5,1 5,0 	"/>
	<rect y="1" width="1" height="1"/>
	<rect x="5" y="1" width="1" height="3"/>
</g>
<polygon class="fur" points="4,2 3,2 1,2 1,3 2,3 2,4 3,4 3,5 4,5 4,4 5,4 5,2 "/>
</svg>
