<?xml version="1.0" encoding="utf-8"?>
<!-- Generator: Adobe Illustrator 25.4.1, SVG Export Plug-In . SVG Version: 6.00 Build 0)  -->
<svg version="1.1" id="Layer_1" xmlns="http://www.w3.org/2000/svg" xmlns:xlink="http://www.w3.org/1999/xlink" x="0px" y="0px"
	 viewBox="0 0 24 19.8" style="enable-background:new 0 0 24 19.8;" xml:space="preserve">
<g>
	<rect x="5.4" y="3" style="fill:#100C0A;" width="1" height="1"/>
	<rect x="3.4" y="5" style="fill:#100C0A;" width="1" height="2"/>
	<polygon style="fill:#100C0A;" points="7.4,2 6.4,2 6.4,3 7.4,3 8.4,3 8.4,2 8.4,1 7.4,1 	"/>
	<rect x="1.4" y="8" style="fill:#100C0A;" width="1" height="3"/>
	<rect x="2.4" y="7" style="fill:#100C0A;" width="1" height="1"/>
	<polygon style="fill:#100C0A;" points="11.4,3 11.4,4 12.4,4 12.4,3 13.4,3 13.4,2 11.4,2 	"/>
	<polygon style="fill:#100C0A;" points="9.4,0 8.4,0 8.4,1 9.4,1 10.4,1 10.4,0 	"/>
	<rect x="4.4" y="4" style="fill:#100C0A;" width="1" height="1"/>
	<polygon style="fill:#100C0A;" points="21.4,8 20.4,8 20.4,9 21.4,9 22.4,9 22.4,8 	"/>
	<rect x="19.4" y="6" style="fill:#100C0A;" width="1" height="2"/>
	<rect x="22.4" y="9" style="fill:#100C0A;" width="1" height="2"/>
	<polygon style="fill:#100C0A;" points="19.4,4 18.4,4 18.4,5 18.4,6 19.4,6 19.4,5 	"/>
	<rect x="17.4" y="3" style="fill:#100C0A;" width="1" height="1"/>
	<rect x="13.4" y="1" style="fill:#100C0A;" width="3" height="1"/>
	<rect x="10.4" y="1" style="fill:#100C0A;" width="1" height="1"/>
	<rect x="16.4" y="2" style="fill:#100C0A;" width="1" height="1"/>
	<rect x="17.4" y="5" style="fill:#100C0A;" width="1" height="1"/>
	<rect x="16.4" y="6" style="fill:#100C0A;" width="1" height="1"/>
</g>
<polygon style="fill:#7D78A5;" points="21.4,9 20.4,9 20.4,8 19.4,8 19.4,7 19.4,6 18.4,6 18.4,5 18.4,4 17.4,4 17.4,3 16.4,3 
	16.4,4 16.4,4 16.4,3 16.4,3 16.4,2 15.4,2 14.4,2 13.4,2 13.4,3 12.4,3 11.4,3 11.4,2 10.4,2 10.4,1 9.4,1 8.4,1 8.4,2 7.4,2 
	7.4,3 6.4,3 6.4,4 5.4,4 5.4,5 4.4,5 4.4,6 4.4,7 3.4,7 3.4,8 2.4,8 2.4,9 2.4,10 2.4,11 3.4,11 4.4,11 5.4,11 6.4,11 7.4,11 
	8.4,11 9.4,11 10.4,11 11.4,11 12.4,11 13.4,11 14.4,11 15.4,11 16.4,11 17.4,11 18.4,11 19.4,11 20.4,11 21.4,11 22.4,11 22.4,10 
	22.4,9 "/>
<g>
	<polygon style="fill:#9995B8;" points="6.4,5 6.4,6 7.4,6 8.4,6 8.4,5 7.4,5 	"/>
	<polygon style="fill:#9995B8;" points="15.4,3 14.4,3 14.4,4 15.4,4 16.4,4 16.4,3 	"/>
</g>
<polygon style="fill-rule:evenodd;clip-rule:evenodd;fill:#7D78A5;" points="22,10.8 22,9.8 21,9.8 20,9.8 18,9.8 17,9.8 15,9.8 
	14,9.8 10,9.8 9,9.8 6,9.8 5,9.8 3,9.8 2,9.8 2,10.8 1,10.8 1,11.8 1,13.8 1,14.8 1,16.8 2,16.8 2,17.8 3,17.8 3,18.8 5,18.8 
	6,18.8 9,18.8 10,18.8 10,17.8 12,17.8 12,18.8 14,18.8 15,18.8 17,18.8 18,18.8 18,17.8 20,17.8 20,16.8 21,16.8 21,15.8 23,15.8 
	23,14.8 23,13.8 23,11.8 23,10.8 "/>
<g>
	<rect x="1" y="16.8" style="fill:#100C0A;" width="1" height="1"/>
	<rect x="2" y="17.8" style="fill:#100C0A;" width="1" height="1"/>
	<polygon style="fill:#100C0A;" points="1,11.8 2,11.8 2,10.8 1,10.8 1,11.8 0,11.8 0,14.8 0,16.8 1,16.8 1,14.8 	"/>
	<polygon style="fill:#100C0A;" points="21,16.8 20,16.8 20,17.8 18,17.8 18,18.8 14,18.8 12,18.8 12,19.8 14,19.8 18,19.8 20,19.8 
		20,18.8 21,18.8 21,17.8 22,17.8 22,16.8 23,16.8 23,15.8 21,15.8 	"/>
	<polygon style="fill:#100C0A;" points="23,11.8 23,14.8 23,15.8 24,15.8 24,14.8 24,11.8 	"/>
	<rect x="10" y="17.8" style="fill:#100C0A;" width="2" height="1"/>
	<polygon style="fill:#100C0A;" points="5,18.8 3,18.8 3,19.8 5,19.8 9,19.8 10,19.8 10,18.8 9,18.8 	"/>
	<polygon style="fill:#100C0A;" points="23,11.8 23,10.8 22,10.8 21,10.8 21,11.8 22,11.8 	"/>
	<polygon style="fill:#100C0A;" points="4,10.8 4,9.8 3,9.8 2,9.8 2,10.8 3,10.8 	"/>
</g>
<polygon points="11,13.8 11,14.8 11,15 11,15.8 10,15.8 10,16.8 10,17.8 11,17.8 11,16.8 12,16.8 12,15.8 12,15 12,14.8 12,13.8 "/>
</svg>
