<svg xmlns="http://www.w3.org/2000/svg" width="19" height="20" fill="none" viewBox="0 0 19 20">
  <path fill="#000" d="M0 6V0h3.999v1h-3v1.001h3v1h-3V6H0zM6 6V5h2v1H6zM5 5V0h1v5H5zm3 0V0h.999v5h-1zM11 6V5h2v1h-2zm-1-1V0h1v5h-1zm3 0V0h.999v5h-1zM16 6V5h2v1h-2zm-1-1V0h1v5h-1zm3 0V0h.999v5h-1zM1 13v-1h2v1H1zm-1-1V7h1v5H0zm3 0V7h.999v5h-1zM6 13v-1h2v1H6zm-1-1V7h1v5H5zm3 0V7h.999v5h-1zM11 13v-1h2v1h-2zm-1-1V7h1v5h-1zm3 0V7h.999v5h-1zM16 13v-1h2v1h-2zm-1-1V7h1v5h-1zm3 0V7h.999v5h-1zM1 20v-1h2v1H1zm-1-1v-5h1v5H0zm3 0v-5h.999v5h-1zM6 20v-1h2v1H6zm-1-1v-5h1v5H5zm3 0v-5h.999v5h-1zM11 20v-1h2v1h-2zm2-1v-1h.999v1h-1zm-3 0v-4h1v4h-1zm3-2.999V15h.999v1.001h-1zM11 15v-1h2v1h-2zM18 20v-2h.999v2h-1zm-1-2v-1h1v1h-1zm0-1.999V15h1v1.001h-1zM15 20v-6h1v2.001h1v1h-1V20h-1zm3-5v-1h.999v1h-1z"/>
</svg>
