<svg xmlns="http://www.w3.org/2000/svg" width="19" height="20" fill="none" viewBox="0 0 19 20">
  <path fill="#000" d="M18.999 6V0H15v1h3v1h-3v1h3v3h.999zM13 6V5h-2v1h2zm.999-1V0h-1v5h1zm-3 0V0H10v5h1zM8 6V5H6v1h2zM6 5V4H5v1h1zm2.999 0V1h-1v4h1zm-3-3V1H5v1h1zm2-1V0H6v1h2zM1 6V4H0v2h1zm1-2V3H1v1h1zm0-2V1H1v1h1zm1.999 4V0h-1v2H2v1h1v3h1zm-3-5V0H0v1h1zM18.999 13V7H15v1h3v1h-3v1h3v3h.999zM13 13v-1h-2v1h2zm.999-1V7h-1v5h1zm-3 0V7H10v5h1zM8 13v-1H6v1h2zm-2-1v-1H5v1h1zm2.999 0V8h-1v4h1zm-3-3V8H5v1h1zm2-1V7H6v1h2zM1 13v-2H0v2h1zm1-2v-1H1v1h1zm0-2V8H1v1h1zm1.999 4V7h-1v2H2v1h1v3h1zm-3-5V7H0v1h1zM18.999 20v-6H15v1h3v1h-3v1h3v3h.999zM13 20v-1h-2v1h2zm.999-1v-5h-1v5h1zm-3 0v-5H10v5h1zM8 20v-1H6v1h2zm-2-1v-1H5v1h1zm2.999 0v-4h-1v4h1zm-3-3v-1H5v1h1zm2-1v-1H6v1h2zM1 20v-2H0v2h1zm1-2v-1H1v1h1zm0-2v-1H1v1h1zm1.999 4v-6h-1v2H2v1h1v3h1zm-3-5v-1H0v1h1z"/>
</svg>
